<?xml version="1.0" encoding="UTF-8"?><svg xmlns="http://www.w3.org/2000/svg" viewBox="0 0 330.82 330.82"><defs><style>.h{fill:#fff;}.i{fill:#2fac55;}</style></defs><g id="a"/><g id="b"><g id="c"><circle id="d" class="i" cx="165.41" cy="165.41" r="165.41"/><g id="e" transform="translate(-37 -78.2)"><path id="f" class="h" d="M165.82,116.61h0c7.99,0,14.47,6.48,14.47,14.47v126.54c0,7.99-6.48,14.47-14.47,14.47h0c-7.99,0-14.47-6.48-14.47-14.47v-126.54c0-7.99,6.48-14.47,14.47-14.47Z"/><path id="g" class="h" d="M160.63,65.72c1.8-2.64,5.41-3.32,8.05-1.52,.6,.41,1.11,.92,1.52,1.52l58.51,85.67c1.8,2.64,1.12,6.24-1.52,8.05-.96,.66-2.1,1.01-3.26,1.01H106.9c-3.2,0-5.79-2.59-5.79-5.79,0-1.17,.35-2.3,1.01-3.27l58.51-85.67Z"/></g></g></g></svg>