<?xml version="1.0" encoding="UTF-8"?><svg xmlns="http://www.w3.org/2000/svg" viewBox="0 0 233.9 233.89"><defs><style>.d{fill:#bfbfbf;}</style></defs><g id="a"/><g id="b"><g id="c"><path class="d" d="M116.95,0C52.36,0,0,52.36,0,116.94s52.36,116.95,116.95,116.95,116.95-52.36,116.95-116.95c0-64.58-52.37-116.94-116.95-116.94Zm-9.75,152.41c0,4.85-3.92,8.77-8.77,8.77s-8.77-3.92-8.77-8.77V86.12c0-4.85,3.92-8.77,8.77-8.77s8.77,3.92,8.77,8.77v66.29Zm37.04,0c0,4.85-3.92,8.77-8.77,8.77s-8.77-3.92-8.77-8.77V86.12c0-4.85,3.92-8.77,8.77-8.77s8.77,3.92,8.77,8.77v66.29Z"/></g></g></svg>