<?xml version="1.0" encoding="UTF-8"?>
<svg id="uuid-20065f12-ae77-40f5-a15a-80f38306d2bc" data-name="Layer 1" xmlns="http://www.w3.org/2000/svg" viewBox="0 0 1148 361">
  <g id="uuid-f2dc3747-d3fc-4e41-b6af-f922d14e7ea4" data-name="Artboard 1">
    <path id="uuid-b61e76b7-67c2-4828-bb95-ab6a834a54a5" data-name="Path 1" d="M1148,98.54s-38.57-38.11-84.61-58.11-99.54-21.91-99.54-21.91c0,0-61.01-.89-111.81,20.23s-87.98,66.69-87.98,66.69c0,0-37.91,44.35-83.77,68.61s-104.8,24.97-104.8,24.97c0,0-55.99,.42-102.85-22.13s-82.27-68.49-82.27-68.49c0,0-36.64-43.2-86.57-66.07s-113.77-23.98-113.77-23.98c0,0-56.31,.23-103.81,20.43S.02,99.14,.02,99.14V360.74H1148V98.54Z" fill="#fb695b"/>
  </g>
</svg>