<svg id="Layer_1" data-name="Layer 1" xmlns="http://www.w3.org/2000/svg" xmlns:xlink="http://www.w3.org/1999/xlink" viewBox="0 0 349.05 240.6"><defs><style>.cls-1{fill:none;}.cls-2{clip-path:url(#clip-path);}.cls-3{fill:#fb695b;}</style><clipPath id="clip-path"><rect class="cls-1" width="349.05" height="240.6"/></clipPath></defs><g class="cls-2"><g id="a"><path class="cls-3" d="M96.92,0H252.13c5.88,0,10.65,4.52,10.65,10.08V116.7c0,5.57-4.77,10.08-10.65,10.08H96.92c-5.88,0-10.65-4.51-10.65-10.08V10.08C86.27,4.52,91,0,96.92,0Z"/><path class="cls-3" d="M179.83,236.83a9.39,9.39,0,0,1-10.61,0L18,129.46a6.55,6.55,0,0,1-1.14-10.14,8.94,8.94,0,0,1,6.45-2.62H325.76c4.61,0,8.35,3.22,8.35,7.2a6.87,6.87,0,0,1-3,5.56Z"/></g></g></svg>